# AST/ASF file generated using VICON BodyLanguage
# -----------------------------------------------
:version 1.10
:name VICON
:units
  mass 1.0
  length 0.45
  angle deg
:documentation
   .ast/.asf automatically generated from VICON data using
   VICON BodyBuilder and BodyLanguage model FoxedUp or BRILLIANT.MOD
:root
   order TX TY TZ RX RY RZ
   axis XYZ
   position 0 0 0  
   orientation 0 0 0 
:bonedata
  begin
     id 1 
     name lhipjoint
     direction 0.596438 -0.722117 0.35044 
     length 2.43043 
     axis 0 0 0  XYZ
  end
  begin
     id 2 
     name lfemur
     direction 0.34202 -0.939693 0  
     length 7.0339  
     axis 0 0 20  XYZ
    dof rx ry rz
    limits (-160.0 20.0)
           (-70.0 70.0)
           (-60.0 70.0)
  end
  begin
     id 3 
     name ltibia
     direction 0.34202 -0.939693 0   
     length 7.56602   
     axis 0 0 20   XYZ
    dof rx
    limits (-10.0 170.0)
  end
  begin
     id 4 
     name lfoot
     direction 0.0985677 -0.270812 0.957572   
     length 1.85172   
     axis -90 7.62852e-016 20   XYZ
    dof rx rz
    limits (-45.0 90.0)
           (-70.0 20.0)
  end
  begin
     id 5 
     name ltoes
     direction 1.53534e-011 -4.21843e-011 1   
     length 0.929904   
     axis -90 7.62852e-016 20   XYZ
    dof rx
    limits (-90.0 20.0)
  end
  begin
     id 6 
     name rhipjoint
     direction -0.585088 -0.729594 0.354068   
     length 2.40552  
     axis 0 0 0  XYZ 
  end
  begin
     id 7 
     name rfemur
     direction -0.34202 -0.939693 0   
     length 7.12573   
     axis 0 0 -20   XYZ
    dof rx ry rz
    limits (-160.0 20.0)
           (-70.0 70.0)
           (-70.0 60.0)
  end
  begin
     id 8 
     name rtibia
     direction -0.34202 -0.939693 0   
     length 7.35777   
     axis 0 0 -20   XYZ
    dof rx
    limits (-10.0 170.0)
 end
 begin
     id 9 
     name rfoot
     direction -0.120907 -0.33219 0.935431   
     length 2.0994  
     axis -90 -7.62852e-016 -20   XYZ
    dof rx rz
    limits (-45.0 90.0)
           (-20.0 70.0)
  end
  begin
     id 10 
     name rtoes
     direction -1.53577e-011 -4.21787e-011 1   
     length 1.04244   
     axis -90 -7.62852e-016 -20   XYZ
    dof rx
    limits (-90.0 20.0)
  end
  begin
     id 11 
     name lowerback
     direction 0.00268363 0.993603 -0.112896   
     length 2.15839   
     axis 0 0 0   XYZ
    dof rx ry rz
    limits (-20.0 45.0)
           (-30.0 30.0)
           (-30.0 30.0)
  end
  begin
     id 12 
     name upperback
     direction 0.0272563 0.999411 -0.0208618   
     length 2.16443   
     axis 0 0 0   XYZ
    dof rx ry rz
    limits (-20.0 45.0)
           (-30.0 30.0)
           (-30.0 30.0)
  end
  begin
     id 13 
     name thorax
     direction 0.0254655 0.999174 0.0316806   
     length 2.19003   
     axis 0 0 0   XYZ
    dof rx ry rz
    limits (-20.0 45.0)
           (-30.0 30.0)
           (-30.0 30.0)
  end
  begin
     id 14 
     name lowerneck
     direction -0.0102178 0.988048 0.15381   
     length 1.61507   
     axis 0 0 0   XYZ
    dof rx ry rz
    limits (-20.0 45.0)
           (-30.0 30.0)
           (-30.0 30.0)
  end
  begin
     id 15 
     name upperneck
     direction -0.0061965 0.994088 -0.108398   
     length 1.64042   
     axis 0 0 0   XYZ
    dof rx ry rz
    limits (-20.0 45.0)
           (-30.0 30.0)
           (-30.0 30.0)
  end
  begin
     id 16
     name head
     direction -0.00151929 0.998591 -0.0530385  
     length 1.64343  
     axis 0 0 0   XYZ
    dof rx ry rz
    limits (-20.0 45.0)
           (-30.0 30.0)
           (-30.0 30.0)
  end
  begin
     id 17 
     name lclavicle
     direction 0.948974 0.284245 -0.136574  
     length 3.3483  
     axis 0 0 0   XYZ
    dof ry rz
    limits (-20.0 10.0)
           (0.0 20.0)
  end
  begin
     id 18 
     name lhumerus
     direction 1 -4.48961e-011 1.68576e-027   
     length 4.93485   
     axis -180 -30 -90   XYZ
    dof rx ry rz
    limits (-60.0 90.0)
           (-90.0 90.0)
           (-90.0 90.0)
  end
  begin
     id 19
     name lradius
     direction 1 -4.48965e-011 -2.46405e-027   
     length 3.41719   
     axis -180 -30 -90   XYZ
    dof rx
    limits (-10.0 170.0)
  end
  begin
     id 20
     name lwrist
     direction 1 -4.48968e-011 -8.00486e-028   
     length 1.7086   
     axis 3.27501e-015 90 90   XYZ
    dof ry
    limits (-180.0 0.0)
 end
  begin
     id 21 
     name lhand
     direction 1 -4.48977e-011 -1.60161e-027   
     length 0.6241   
     axis 1.02148e-015 90 90   XYZ
    dof rx rz
    limits (-90.0 90.0)
           (-45.0 45.0)
  end
  begin
     id 22 
     name lfingers
     direction 1 -4.49049e-011 -3.21275e-027   
     length 0.503166   
     axis 2.04295e-015 90 90   XYZ
    dof rx
    limits (0.0 90.0)
  end
  begin
     id 23
     name lthumb
     direction 0.707107 -6.34975e-011 0.707107   
     length 0.722448   
     axis -90 45 -1.62303e-014   XYZ
    dof rx rz
    limits (-45.0 45.0)
           (-45.0 45.0)
  end
  begin
     id 24 
     name rclavicle
     direction -0.904485 0.355099 -0.236246   
     length 3.18329  
     axis 0 0 0   XYZ 
    dof ry rz
    limits (-10.0 20.0)
           (-20.0 0.0)
  end
  begin
     id 25 
     name rhumerus
     direction -1 -4.48953e-011 1.32816e-027  
     length 5.22034   
     axis -180 30 90   XYZ
    dof rx ry rz
    limits (-90.0 60.0)
           (-90.0 90.0)
           (-90.0 90.0)
  end
  begin
     id 26 
     name rradius
     direction -1 -4.48965e-011 -3.93727e-027   
     length 3.41809   
     axis -180 30 90   XYZ
    dof rx
    limits (-10.0 170.0)
  end
  begin
     id 27 
     name rwrist
     direction -1 -4.48962e-011 -8.003e-028   
     length 1.70904   
     axis 3.27501e-015 -90 -90   XYZ
    dof ry
    limits (-180.0 0.0)
  end
  begin
     id 28
     name rhand
     direction -1 -4.49008e-011 -1.60365e-027   
     length 0.77534   
     axis 1.02148e-015 -90 -90   XYZ
    dof rx rz
    limits (-90.0 90.0)
           (-45.0 45.0)
  end
  begin
     id 29
     name rfingers
     direction -1 -4.49001e-011 -3.2064e-027   
     length 0.625099   
     axis 2.04295e-015 -90 -90   XYZ
    dof rx
    limits (0.0 90.0)
  end
  begin
     id 30
     name rthumb
     direction -0.707107 -6.34989e-011 0.707107   
     length 0.897521   
     axis -90 -45 1.62303e-014   XYZ
    dof rx rz
    limits (-45.0 45.0)
           (-45.0 45.0)
  end
:hierarchy
  begin
    root lhipjoint rhipjoint lowerback
    lhipjoint lfemur
    lfemur ltibia
    ltibia lfoot
    lfoot ltoes
    rhipjoint rfemur
    rfemur rtibia
    rtibia rfoot
    rfoot rtoes
    lowerback upperback
    upperback thorax
    thorax lowerneck lclavicle rclavicle
    lowerneck upperneck
    upperneck head
    lclavicle lhumerus
    lhumerus lradius
    lradius lwrist
    lwrist lhand lthumb
    lhand lfingers
    rclavicle rhumerus
    rhumerus rradius
    rradius rwrist
    rwrist rhand rthumb
    rhand rfingers
  end

#!OML:ASF \\sashay\E\Suitcase\Project 1\Capture day 1\Session 1\Male1.ASF
:FULLY-SPECIFIED
:DEGREES
581
root 1.06932 17.4901 4.73015 7.65448 8.09048 0.566097
lowerback 3.43362 -2.88307 -2.29425
upperback -1.06765 -3.86828 3.11395
thorax -2.65651 -1.86768 4.71402
lowerneck -21.6905 4.47526 14.6917
upperneck 23.7427 7.92041 -23.0898
head 13.3251 2.10889 -10.5736
rclavicle 2.78299e-014 -1.51076e-014
rhumerus -57.2087 -35.4362 -43.1436
rradius 12.7916
rwrist 14.1243
rhand -13.5032 15.2176
rfingers 7.12502
rthumb 12.6081 -14.3819
lclavicle 2.78299e-014 -1.51076e-014
lhumerus -34.9883 4.87846 83.8094
lradius 27.2051
lwrist -11.6953
lhand 0.488656 43.1997
lfingers 7.12502
lthumb 26.0583 71.4324
rfemur -24.2675 0.5946 21.0228
rtibia 19.0389
rfoot -2.16163 -6.25903
rtoes 22.9195
lfemur 5.41396 -6.93337 -20.2767
ltibia 27.6468
lfoot 4.92661 -8.30457
ltoes -8.05596
582
root 1.03494 17.4899 4.88699 7.66314 7.84746 0.350233
lowerback 3.50771 -2.82015 -2.18464
upperback -1.33865 -3.77616 3.13796
thorax -2.99281 -1.8117 4.68914
lowerneck -20.8764 4.39554 14.8097
upperneck 23.2848 7.8155 -23.2371
head 12.9494 2.1013 -10.6072
rclavicle -2.00773e-014 2.54444e-014
rhumerus -58.3506 -35.0727 -42.2092
rradius 12.7299
rwrist 14.7199
rhand -13.4175 15.7925
rfingers 7.12502
rthumb 12.6907 -13.8019
lclavicle -2.00773e-014 2.54444e-014
lhumerus -35.6878 4.81492 83.4915
lradius 26.8254
lwrist -12.1981
lhand 0.848765 42.9934
lfingers 7.12502
lthumb 26.4031 71.1748
rfemur -23.7424 1.85604 21.2322
rtibia 19.0716
rfoot -2.82794 -7.09113
rtoes 23.5718
lfemur 4.67025 -6.75053 -19.7403
ltibia 29.4345
lfoot 5.81054 -8.88
ltoes -6.9321
583
root 1.04097 17.5012 5.02271 7.62007 8.10325 -0.0987589
lowerback 3.48376 -2.96331 -1.51267
upperback -1.33496 -3.92969 3.28733
thorax -2.99476 -1.89983 4.47268
lowerneck -20.9052 4.36405 14.9892
upperneck 22.9976 7.6901 -23.3858
head 12.8268 2.04651 -10.7023
rclavicle -4.52235e-014 -1.90833e-014
rhumerus -58.5939 -34.783 -41.9813
rradius 12.7896
rwrist 14.9254
rhand -13.2231 16.5454
rfingers 7.12502
rthumb 12.8781 -13.0373
lclavicle -4.52235e-014 -1.90833e-014
lhumerus -36.0572 4.92069 83.3803
lradius 26.7239
lwrist -12.9074
lhand 1.5724 42.9463
lfingers 7.12502
lthumb 27.0956 71.0219
rfemur -23.2422 0.845616 22.0371
rtibia 19.1
rfoot -3.00081 -6.18821
rtoes 22.6808
lfemur 3.86177 -7.05755 -19.0666
ltibia 31.3104
lfoot 6.62815 -9.11989
ltoes -5.22059
584
root 1.02061 17.5011 5.15827 7.52087 8.09874 -0.70581
lowerback 3.38128 -2.9365 -0.859656
upperback -1.30747 -3.85993 3.3883
thorax -2.9503 -1.87738 4.19987
lowerneck -21.6479 4.44685 14.7904
upperneck 23.5343 7.73534 -22.8552
head 13.1674 2.06176 -10.4863
rclavicle 2.04748e-014 -3.65764e-014
rhumerus -58.0705 -33.4492 -43.6138
rradius 13.1128
rwrist 13.46
rhand -13.1733 14.9065
rfingers 7.12502
rthumb 12.9262 -14.6731
lclavicle 2.04748e-014 -3.65764e-014
lhumerus -36.2994 4.11393 83.4541
lradius 26.6825
lwrist -12.8305
lhand 2.33373 43.183
lfingers 7.12502
lthumb 27.8237 71.143
rfemur -22.699 1.13514 22.8472
rtibia 18.9356
rfoot -3.33197 -6.33166
rtoes 22.4206
lfemur 2.92089 -7.1285 -18.0879
ltibia 33.3705
lfoot 7.05481 -9.67103
ltoes -5.78934
585
root 1.00802 17.5035 5.28545 7.52009 8.38414 -1.03788
lowerback 3.47859 -2.97092 -0.344924
upperback -1.46033 -3.87276 3.48786
thorax -3.18928 -1.88742 4.02851
lowerneck -21.8134 4.22992 14.6397
upperneck 23.6246 7.46865 -22.8807
head 13.1657 1.91504 -10.5292
rclavicle -3.16068e-014 1.19271e-014
rhumerus -58.1974 -32.482 -44.0454
rradius 13.2059
rwrist 12.5967
rhand -13.0793 15.5358
rfingers 7.12502
rthumb 13.0167 -14.0381
lclavicle -3.16068e-014 1.19271e-014
lhumerus -36.5125 4.10489 83.3758
lradius 26.4058
lwrist -13.4512
lhand 3.22326 43.2622
lfingers 7.12502
lthumb 28.6739 71.0816
rfemur -22.2018 1.3217 23.306
rtibia 18.7743
rfoot -3.93128 -6.83378
rtoes 22.9436
lfemur 1.8974 -7.54483 -17.425
ltibia 35.3856
lfoot 7.77605 -9.99728
ltoes -1.524
586
root 0.999576 17.5124 5.4197 7.41791 8.57037 -1.67598
lowerback 3.44084 -3.05272 0.254799
upperback -1.37818 -3.94723 3.74262
thorax -3.10064 -1.93586 3.95532
lowerneck -22.3078 4.21622 14.4566
upperneck 23.7523 7.4363 -22.7361
head 13.2994 1.87211 -10.4592
rclavicle 2.69353e-014 -7.95139e-016
rhumerus -57.7487 -31.4625 -45.1686
rradius 13.7067
rwrist 11.0556
rhand -12.838 15.3104
rfingers 7.12502
rthumb 13.2493 -14.2485
lclavicle 2.69353e-014 -7.95139e-016
lhumerus -36.579 4.41826 83.2944
lradius 26.4526
lwrist -14.0661
lhand 3.17235 42.687
lfingers 7.12502
lthumb 28.6252 70.5146
rfemur -21.6031 1.40138 24.1224
rtibia 18.5605
rfoot -4.20224 -7.06266
rtoes 23.6905
lfemur 0.891139 -7.76427 -16.4463
ltibia 37.4458
lfoot 8.49752 -9.77724
ltoes 2.13508
